<svg width="1997" height="1024" viewBox="0 0 1997 1024" fill="none" xmlns="http://www.w3.org/2000/svg">
<rect width="1997" height="1024" fill="white"/>
<g opacity="0.4">
<line opacity="0.5" x1="118" y1="1024" x2="118" y2="-4.37115e-08" stroke="#EB5E55" stroke-width="2"/>
<line y1="-0.5" x2="1997" y2="-0.5" transform="matrix(1 0 0 -1 0 228)" stroke="#505050" stroke-opacity="0.5"/>
<line y1="-0.5" x2="1997" y2="-0.5" transform="matrix(1 0 0 -1 0 415)" stroke="#505050" stroke-opacity="0.5"/>
<line y1="-0.5" x2="1997" y2="-0.5" transform="matrix(1 0 0 -1 0 604)" stroke="#505050" stroke-opacity="0.5"/>
<line y1="-0.5" x2="1997" y2="-0.5" transform="matrix(1 0 0 -1 0 791)" stroke="#505050" stroke-opacity="0.5"/>
<line y1="-0.5" x2="1997" y2="-0.5" transform="matrix(1 0 0 -1 0 978)" stroke="#505050" stroke-opacity="0.5"/>
<line y1="-0.5" x2="1997" y2="-0.5" transform="matrix(1 0 0 -1 0 153)" stroke="#505050" stroke-opacity="0.5"/>
<line y1="-0.5" x2="1997" y2="-0.5" transform="matrix(1 0 0 -1 0 340)" stroke="#505050" stroke-opacity="0.5"/>
<line y1="-0.5" x2="1997" y2="-0.5" transform="matrix(1 0 0 -1 0 529)" stroke="#505050" stroke-opacity="0.5"/>
<line y1="-0.5" x2="1997" y2="-0.5" transform="matrix(1 0 0 -1 0 716)" stroke="#505050" stroke-opacity="0.5"/>
<line y1="-0.5" x2="1997" y2="-0.5" transform="matrix(1 0 0 -1 0 903)" stroke="#505050" stroke-opacity="0.5"/>
<line y1="-0.5" x2="1997" y2="-0.5" transform="matrix(1 0 0 -1 0 191)" stroke="#505050" stroke-opacity="0.5"/>
<line y1="-0.5" x2="1997" y2="-0.5" transform="matrix(1 0 0 -1 0 378)" stroke="#505050" stroke-opacity="0.5"/>
<line y1="-0.5" x2="1997" y2="-0.5" transform="matrix(1 0 0 -1 0 567)" stroke="#505050" stroke-opacity="0.5"/>
<line y1="-0.5" x2="1997" y2="-0.5" transform="matrix(1 0 0 -1 0 754)" stroke="#505050" stroke-opacity="0.5"/>
<line y1="-0.5" x2="1997" y2="-0.5" transform="matrix(1 0 0 -1 0 941)" stroke="#505050" stroke-opacity="0.5"/>
<line y1="-0.5" x2="1997" y2="-0.5" transform="matrix(1 0 0 -1 0 115)" stroke="#505050" stroke-opacity="0.5"/>
<line y1="-0.5" x2="1997" y2="-0.5" transform="matrix(1 0 0 -1 0 302)" stroke="#505050" stroke-opacity="0.5"/>
<line y1="-0.5" x2="1997" y2="-0.5" transform="matrix(1 0 0 -1 0 491)" stroke="#505050" stroke-opacity="0.5"/>
<line y1="-0.5" x2="1997" y2="-0.5" transform="matrix(1 0 0 -1 0 678)" stroke="#505050" stroke-opacity="0.5"/>
<line y1="-0.5" x2="1997" y2="-0.5" transform="matrix(1 0 0 -1 0 865)" stroke="#505050" stroke-opacity="0.5"/>
<line y1="-0.5" x2="1997" y2="-0.5" transform="matrix(1 0 0 -1 0 265)" stroke="#505050" stroke-opacity="0.5"/>
<line y1="-0.5" x2="1997" y2="-0.5" transform="matrix(1 0 0 -1 0 452)" stroke="#505050" stroke-opacity="0.5"/>
<line y1="-0.5" x2="1997" y2="-0.5" transform="matrix(1 0 0 -1 0 641)" stroke="#505050" stroke-opacity="0.5"/>
<line y1="-0.5" x2="1997" y2="-0.5" transform="matrix(1 0 0 -1 0 828)" stroke="#505050" stroke-opacity="0.5"/>
<line y1="-0.5" x2="1997" y2="-0.5" transform="matrix(1 0 0 -1 0 1015)" stroke="#505050" stroke-opacity="0.5"/>
</g>
</svg>
