<svg width="65" height="200" viewBox="0 0 65 200" fill="none" xmlns="http://www.w3.org/2000/svg">
<rect width="65" height="200"/>
<g clip-path="url(#clip0)">
<rect width="65" height="200"/>
<path d="M47.7241 8C51.2012 8 55.3103 8.54553 60.0517 9.6366L61 11.2732L59.1035 21.3266C55.4684 20.5472 52.5445 20.1576 50.3319 20.1576C45.2744 20.1576 41.5603 21.5604 39.1897 24.3659C36.819 27.1715 35.6336 31.4579 35.6336 37.2249C35.6336 42.2126 36.5029 48.8369 38.2414 57.0978C39.8218 66.1381 40.6121 72.2948 40.6121 75.568C40.6121 87.1021 35.3175 95.1292 24.7284 99.6493V100.584C35.3175 105.105 40.6121 113.054 40.6121 124.432C40.6121 128.017 39.8218 134.174 38.2414 142.902C36.5029 151.475 35.6336 158.099 35.6336 162.775C35.6336 168.698 36.819 173.062 39.1897 175.868C41.5603 178.673 45.2744 180.076 50.3319 180.076C52.5445 180.076 55.4684 179.687 59.1035 178.907L61 188.961L60.0517 190.597C56.1006 191.532 51.9914 192 47.7241 192C38.8736 192 32.0776 189.74 27.3362 185.22C22.7529 180.856 20.4612 174.387 20.4612 165.814C20.4612 161.606 20.8563 157.008 21.6466 152.02C22.4368 147.033 22.9109 143.993 23.069 142.902C24.4914 135.109 25.2026 129.186 25.2026 125.133C25.2026 113.755 18.8017 107.053 6 105.027V95.4409C12.6379 94.194 17.4583 91.9339 20.4612 88.6607C23.6221 85.2317 25.2026 80.7116 25.2026 75.1004C25.2026 71.2037 24.4914 65.3587 23.069 57.5654C22.9109 56.6302 22.4368 53.5908 21.6466 48.4473C20.8563 43.3037 20.4612 38.6277 20.4612 34.4193C20.4612 25.8467 22.7529 19.3003 27.3362 14.7802C32.0776 10.2601 38.8736 8 47.7241 8Z" fill="black"/>
</g>
<defs>
<clipPath id="clip0">
<rect width="65" height="200" fill="white"/>
</clipPath>
</defs>
</svg>
