<svg width="67" height="84" viewBox="0 0 67 84" fill="none" xmlns="http://www.w3.org/2000/svg">
<rect width="67" height="84" fill="white"/>
<rect x="19" y="6" width="38" height="68" fill="#7CC2B5" fill-opacity="0.61"/>
<path d="M14.8276 7C15.3966 7 16.069 7.09784 16.8448 7.29352L17 7.58704L16.6897 9.39009C16.0948 9.25032 15.6164 9.18043 15.2543 9.18043C14.4267 9.18043 13.819 9.43202 13.431 9.9352C13.0431 10.4384 12.8491 11.2071 12.8491 12.2414C12.8491 13.136 12.9914 14.324 13.2759 15.8056C13.5345 17.4269 13.6638 18.5311 13.6638 19.1182C13.6638 21.1868 12.7974 22.6264 11.0647 23.4371V23.6048C12.7974 24.4155 13.6638 25.8412 13.6638 27.8818C13.6638 28.5248 13.5345 29.629 13.2759 31.1944C12.9914 32.7319 12.8491 33.9199 12.8491 34.7586C12.8491 35.8208 13.0431 36.6036 13.431 37.1067C13.819 37.6099 14.4267 37.8615 15.2543 37.8615C15.6164 37.8615 16.0948 37.7916 16.6897 37.6518L17 39.4549L16.8448 39.7484C16.1983 39.9161 15.5259 40 14.8276 40C13.3793 40 12.2672 39.5947 11.4914 38.784C10.7414 38.0013 10.3664 36.8412 10.3664 35.3037C10.3664 34.5489 10.431 33.7243 10.5603 32.8297C10.6897 31.9352 10.7672 31.3901 10.7931 31.1944C11.0259 29.7967 11.1422 28.7344 11.1422 28.0076C11.1422 25.967 10.0948 24.7649 8 24.4015V22.6823C9.08621 22.4587 9.875 22.0534 10.3664 21.4663C10.8836 20.8513 11.1422 20.0407 11.1422 19.0343C11.1422 18.3354 11.0259 17.2872 10.7931 15.8895C10.7672 15.7217 10.6897 15.1766 10.5603 14.2541C10.431 13.3316 10.3664 12.493 10.3664 11.7382C10.3664 10.2008 10.7414 9.02668 11.4914 8.21601C12.2672 7.40534 13.3793 7 14.8276 7Z" fill="black"/>
<rect x="23" y="30" width="30" height="4" rx="2" fill="black"/>
<rect x="23" y="22" width="30" height="4" rx="2" fill="black"/>
<rect x="23" y="14" width="30" height="4" rx="2" fill="black"/>
</svg>
